<svg xmlns="http://www.w3.org/2000/svg" xmlns:svg="http://www.w3.org/2000/svg" id="svg72" width="250" height="54" version="1.1" viewBox="0 0 250 54" xml:space="preserve"><g id="g70" fill="none" fill-rule="evenodd" stroke="none" stroke-width="1" transform="translate(-70.59351,16.110552)"><g id="g68" transform="translate(-43.604701,7.371904)"><g id="g66" transform="translate(185.80109,76.075651)"><g id="g1089" style="fill:none;fill-rule:evenodd;stroke:none;stroke-width:1" transform="translate(-71.102879,-99.058107)"><g id="g1824"><rect id="rect1063" width="249" height="53" x=".5" y=".5" fill="#fff" stroke="#d9e1ec" stroke-width="1" rx="10"/><text id="text1067" fill="#4b587c" font-family="Helvetica-Bold, Helvetica" font-size="9" font-weight="bold"><tspan id="tspan1065" x="53" y="20">JOIN US ON</tspan></text><text id="text1071" fill="#4b587c" font-family="Helvetica-Bold, Helvetica" font-size="21" font-weight="bold"><tspan id="tspan1069" x="52" y="40">Discord</tspan></text></g></g><path id="path1723" d="m 151.99607,-80.989528 c -0.28648,0 -0.50555,0.219074 -0.50555,0.505553 0,0.286479 0.21907,0.505552 0.50555,0.505552 h 3.84233 l -7.81927,7.819271 c -0.20222,0.202223 -0.20222,0.522272 0,0.707643 0.10115,0.101108 0.23585,0.15173 0.35382,0.15173 0.11796,0 0.25271,-0.05062 0.35381,-0.15173 l 7.81929,-7.819272 v 3.842327 c 0,0.28648 0.21907,0.505552 0.50554,0.505552 0.28649,0 0.50556,-0.219072 0.50556,-0.505552 v -5.055521 c 0,-0.286479 -0.21907,-0.505553 -0.50556,-0.505553 z m -10.11104,3.370348 c -1.21332,0 -2.19072,0.977401 -2.19072,2.190726 v 10.111042 c 0,1.213324 0.9774,2.190725 2.19072,2.190725 h 10.11104 c 1.21334,0 2.19073,-0.977401 2.19073,-2.190725 v -7.583282 c 0,-0.28648 -0.21908,-0.505552 -0.50555,-0.505552 -0.28648,0 -0.50556,0.219072 -0.50556,0.505552 v 7.583282 c 0,0.657217 -0.5224,1.179621 -1.17962,1.179621 h -10.11104 c -0.65721,0 -1.17962,-0.522404 -1.17962,-1.179621 v -10.111042 c 0,-0.657218 0.52241,-1.179622 1.17962,-1.179622 h 7.58329 c 0.28648,0 0.50554,-0.219072 0.50554,-0.505552 0,-0.28648 -0.21906,-0.505552 -0.50554,-0.505552 z" style="fill:#4b587c;stroke:#4b587c;stroke-width:1.30139"/><path id="path356" d="m -34.057804,-82.334117 a 26.286383,26.286383 0 0 0 -6.557221,-2.01742 18.014235,18.014235 0 0 0 -0.839965,1.70743 24.418963,24.418963 0 0 0 -7.277191,0 18.091731,18.091731 0 0 0 -0.839963,-1.70743 26.471376,26.471376 0 0 0 -6.562222,2.02242 c -4.149823,6.13974 -5.274775,12.126983 -4.712299,18.029234 v 0 a 26.431377,26.431377 0 0 0 8.042158,4.037327 19.424174,19.424174 0 0 0 1.722427,-2.777382 17.104274,17.104274 0 0 1 -2.712385,-1.294944 c 0.22749,-0.164989 0.449979,-0.334986 0.664971,-0.499979 a 18.891697,18.891697 0 0 0 16.079318,0 c 0.21749,0.177486 0.439981,0.347485 0.66497,0.499979 a 17.169271,17.169271 0 0 1 -2.717383,1.297443 19.249182,19.249182 0 0 0 1.722426,2.774883 26.311382,26.311382 0 0 0 8.047158,-4.034828 v 0 c 0.659972,-6.84471 -1.127453,-12.776963 -4.724799,-18.036733 z m -16.311808,14.404386 c -1.567432,0 -2.862377,-1.422439 -2.862377,-3.172364 0,-1.749926 1.249946,-3.184862 2.857378,-3.184862 1.607432,0 2.892378,1.434936 2.864879,3.184862 -0.0275,1.749925 -1.262447,3.172364 -2.85988,3.172364 z m 10.559552,0 c -1.569934,0 -2.859878,-1.422439 -2.859878,-3.172364 0,-1.749926 1.249947,-3.184862 2.859878,-3.184862 1.609933,0 2.884878,1.434936 2.857379,3.184862 -0.0275,1.749925 -1.259948,3.172364 -2.857379,3.172364 z" style="fill:#4b587c;stroke-width:.24999"/></g></g></g></svg>