<svg id="visual" viewBox="0 0 900 600" width="900" height="600" xmlns="http://www.w3.org/2000/svg"
    xmlns:xlink="http://www.w3.org/1999/xlink" version="1.1">
    <path
        d="M0 55L30 51C60 47 120 39 180 41C240 43 300 55 360 56C420 57 480 47 540 41C600 35 660 33 720 33C780 33 840 35 870 36L900 37L900 0L870 0C840 0 780 0 720 0C660 0 600 0 540 0C480 0 420 0 360 0C300 0 240 0 180 0C120 0 60 0 30 0L0 0Z"
        fill="#11101e"></path>
    <path
        d="M0 85L30 85C60 85 120 85 180 90C240 95 300 105 360 103C420 101 480 87 540 81C600 75 660 77 720 80C780 83 840 87 870 89L900 91L900 35L870 34C840 33 780 31 720 31C660 31 600 33 540 39C480 45 420 55 360 54C300 53 240 41 180 39C120 37 60 45 30 49L0 53Z"
        fill="#232550"></path>
    <path
        d="M0 253L30 243C60 233 120 213 180 209C240 205 300 217 360 219C420 221 480 213 540 217C600 221 660 237 720 247C780 257 840 261 870 263L900 265L900 89L870 87C840 85 780 81 720 78C660 75 600 73 540 79C480 85 420 99 360 101C300 103 240 93 180 88C120 83 60 83 30 83L0 83Z"
        fill="#3b3988"></path>
    <path
        d="M0 277L30 272C60 267 120 257 180 254C240 251 300 255 360 253C420 251 480 243 540 251C600 259 660 283 720 292C780 301 840 295 870 292L900 289L900 263L870 261C840 259 780 255 720 245C660 235 600 219 540 215C480 211 420 219 360 217C300 215 240 203 180 207C120 211 60 231 30 241L0 251Z"
        fill="#5249b6"></path>
    <path
        d="M0 391L30 390C60 389 120 387 180 390C240 393 300 401 360 398C420 395 480 381 540 389C600 397 660 427 720 430C780 433 840 409 870 397L900 385L900 287L870 290C840 293 780 299 720 290C660 281 600 257 540 249C480 241 420 249 360 251C300 253 240 249 180 252C120 255 60 265 30 270L0 275Z"
        fill="#5249b6"></path>
    <path
        d="M0 433L30 435C60 437 120 441 180 447C240 453 300 461 360 459C420 457 480 445 540 451C600 457 660 481 720 483C780 485 840 465 870 455L900 445L900 383L870 395C840 407 780 431 720 428C660 425 600 395 540 387C480 379 420 393 360 396C300 399 240 391 180 388C120 385 60 387 30 388L0 389Z"
        fill="#3b3988"></path>
    <path
        d="M0 481L30 486C60 491 120 501 180 505C240 509 300 507 360 502C420 497 480 489 540 496C600 503 660 525 720 533C780 541 840 535 870 532L900 529L900 443L870 453C840 463 780 483 720 481C660 479 600 455 540 449C480 443 420 455 360 457C300 459 240 451 180 445C120 439 60 435 30 433L0 431Z"
        fill="#232550"></path>
    <path
        d="M0 601L30 601C60 601 120 601 180 601C240 601 300 601 360 601C420 601 480 601 540 601C600 601 660 601 720 601C780 601 840 601 870 601L900 601L900 527L870 530C840 533 780 539 720 531C660 523 600 501 540 494C480 487 420 495 360 500C300 505 240 507 180 503C120 499 60 489 30 484L0 479Z"
        fill="#11101e"></path>
</svg>